<mxfile host="app.diagrams.net" modified="2024-03-01T10:03:50.919Z" agent="Mozilla/5.0 (Macintosh; Intel Mac OS X 10_15_7) AppleWebKit/605.1.15 (KHTML, like Gecko) Version/17.3 Safari/605.1.15" etag="WbjHbSPnqC-HABbSoqkC" version="23.1.6" type="github" pages="3">
  <diagram name="Page-1" id="8gHOvVRtRWWs8ZYNdH6r">
    <mxGraphModel dx="1207" dy="814" grid="1" gridSize="12" guides="1" tooltips="1" connect="1" arrows="1" fold="1" page="1" pageScale="1" pageWidth="850" pageHeight="1100" background="#FFFFFF" math="0" shadow="0">
      <root>
        <mxCell id="0" />
        <mxCell id="1" parent="0" />
        <mxCell id="p38P3LaZY30MNL5SKZ96-10" style="edgeStyle=orthogonalEdgeStyle;rounded=0;orthogonalLoop=1;jettySize=auto;html=1;entryX=0.5;entryY=1;entryDx=0;entryDy=0;" parent="1" source="p38P3LaZY30MNL5SKZ96-5" target="p38P3LaZY30MNL5SKZ96-1" edge="1">
          <mxGeometry relative="1" as="geometry">
            <Array as="points">
              <mxPoint x="294" y="686" />
            </Array>
          </mxGeometry>
        </mxCell>
        <mxCell id="p38P3LaZY30MNL5SKZ96-5" value="" style="rounded=1;whiteSpace=wrap;html=1;" parent="1" vertex="1">
          <mxGeometry x="156" y="74" width="276" height="732" as="geometry" />
        </mxCell>
        <mxCell id="p38P3LaZY30MNL5SKZ96-19" style="edgeStyle=orthogonalEdgeStyle;rounded=0;orthogonalLoop=1;jettySize=auto;html=1;exitX=0.5;exitY=1;exitDx=0;exitDy=0;entryX=0;entryY=0.5;entryDx=0;entryDy=0;" parent="1" source="p38P3LaZY30MNL5SKZ96-1" target="p38P3LaZY30MNL5SKZ96-18" edge="1">
          <mxGeometry relative="1" as="geometry">
            <mxPoint x="276" y="458" as="targetPoint" />
            <Array as="points">
              <mxPoint x="294" y="602" />
              <mxPoint x="189" y="602" />
              <mxPoint x="189" y="456" />
            </Array>
          </mxGeometry>
        </mxCell>
        <mxCell id="p38P3LaZY30MNL5SKZ96-21" value="" style="edgeStyle=orthogonalEdgeStyle;rounded=0;orthogonalLoop=1;jettySize=auto;html=1;" parent="1" source="p38P3LaZY30MNL5SKZ96-1" target="p38P3LaZY30MNL5SKZ96-18" edge="1">
          <mxGeometry relative="1" as="geometry" />
        </mxCell>
        <mxCell id="p38P3LaZY30MNL5SKZ96-1" value="Dropout&lt;br&gt;Attention&lt;br&gt;Layer norm" style="rounded=1;whiteSpace=wrap;html=1;fillColor=#dae8fc;strokeColor=#6c8ebf;" parent="1" vertex="1">
          <mxGeometry x="209" y="482" width="170" height="100" as="geometry" />
        </mxCell>
        <mxCell id="p38P3LaZY30MNL5SKZ96-27" value="" style="edgeStyle=orthogonalEdgeStyle;rounded=0;orthogonalLoop=1;jettySize=auto;html=1;" parent="1" source="p38P3LaZY30MNL5SKZ96-2" target="p38P3LaZY30MNL5SKZ96-25" edge="1">
          <mxGeometry relative="1" as="geometry" />
        </mxCell>
        <mxCell id="p38P3LaZY30MNL5SKZ96-28" style="edgeStyle=orthogonalEdgeStyle;rounded=0;orthogonalLoop=1;jettySize=auto;html=1;exitX=0.5;exitY=1;exitDx=0;exitDy=0;entryX=0.5;entryY=1;entryDx=0;entryDy=0;" parent="1" source="p38P3LaZY30MNL5SKZ96-2" target="p38P3LaZY30MNL5SKZ96-25" edge="1">
          <mxGeometry relative="1" as="geometry">
            <Array as="points">
              <mxPoint x="294" y="424" />
              <mxPoint x="192" y="424" />
              <mxPoint x="192" y="276" />
            </Array>
          </mxGeometry>
        </mxCell>
        <mxCell id="p38P3LaZY30MNL5SKZ96-2" value="Dropout&lt;br style=&quot;border-color: var(--border-color);&quot;&gt;Convolution&lt;br style=&quot;border-color: var(--border-color);&quot;&gt;Layer norm" style="rounded=1;whiteSpace=wrap;html=1;fillColor=#ffe6cc;strokeColor=#d79b00;" parent="1" vertex="1">
          <mxGeometry x="209" y="304" width="170" height="100" as="geometry" />
        </mxCell>
        <mxCell id="p38P3LaZY30MNL5SKZ96-14" style="edgeStyle=orthogonalEdgeStyle;rounded=0;orthogonalLoop=1;jettySize=auto;html=1;exitX=0.5;exitY=0;exitDx=0;exitDy=0;entryX=0.5;entryY=1;entryDx=0;entryDy=0;" parent="1" source="p38P3LaZY30MNL5SKZ96-3" target="p38P3LaZY30MNL5SKZ96-11" edge="1">
          <mxGeometry relative="1" as="geometry" />
        </mxCell>
        <mxCell id="p38P3LaZY30MNL5SKZ96-3" value="&lt;br&gt;linear&lt;br&gt;dropout&lt;br&gt;act&lt;br&gt;linear&lt;br&gt;ffscale dropout&lt;br&gt;nn.LayerNorm&lt;br&gt;&lt;div&gt;&lt;br&gt;&lt;/div&gt;" style="rounded=1;whiteSpace=wrap;html=1;fillColor=#d5e8d4;strokeColor=#82b366;" parent="1" vertex="1">
          <mxGeometry x="210" y="654" width="170" height="100" as="geometry" />
        </mxCell>
        <mxCell id="p38P3LaZY30MNL5SKZ96-41" value="" style="edgeStyle=orthogonalEdgeStyle;rounded=0;orthogonalLoop=1;jettySize=auto;html=1;" parent="1" source="p38P3LaZY30MNL5SKZ96-4" target="p38P3LaZY30MNL5SKZ96-37" edge="1">
          <mxGeometry relative="1" as="geometry" />
        </mxCell>
        <mxCell id="p38P3LaZY30MNL5SKZ96-4" value="&lt;br style=&quot;border-color: var(--border-color);&quot;&gt;linear&lt;br style=&quot;border-color: var(--border-color);&quot;&gt;dropout&lt;br style=&quot;border-color: var(--border-color);&quot;&gt;act&lt;br style=&quot;border-color: var(--border-color);&quot;&gt;linear&lt;br style=&quot;border-color: var(--border-color);&quot;&gt;ffscale dropout&lt;br style=&quot;border-color: var(--border-color);&quot;&gt;nn.LayerNorm&lt;div&gt;&lt;br/&gt;&lt;/div&gt;" style="rounded=1;whiteSpace=wrap;html=1;fillColor=#d5e8d4;strokeColor=#82b366;" parent="1" vertex="1">
          <mxGeometry x="209" y="134" width="170" height="100" as="geometry" />
        </mxCell>
        <mxCell id="p38P3LaZY30MNL5SKZ96-7" value="" style="endArrow=classic;html=1;rounded=0;entryX=0.5;entryY=1;entryDx=0;entryDy=0;" parent="1" target="p38P3LaZY30MNL5SKZ96-3" edge="1">
          <mxGeometry width="50" height="50" relative="1" as="geometry">
            <mxPoint x="295" y="914" as="sourcePoint" />
            <mxPoint x="446" y="530" as="targetPoint" />
            <Array as="points" />
          </mxGeometry>
        </mxCell>
        <mxCell id="p38P3LaZY30MNL5SKZ96-8" value="" style="endArrow=classic;html=1;rounded=0;exitX=0.5;exitY=1;exitDx=0;exitDy=0;entryX=0;entryY=0.5;entryDx=0;entryDy=0;" parent="1" source="p38P3LaZY30MNL5SKZ96-3" target="p38P3LaZY30MNL5SKZ96-11" edge="1">
          <mxGeometry width="50" height="50" relative="1" as="geometry">
            <mxPoint x="396" y="592" as="sourcePoint" />
            <mxPoint x="456" y="542" as="targetPoint" />
            <Array as="points">
              <mxPoint x="295" y="782" />
              <mxPoint x="192" y="782" />
              <mxPoint x="192" y="626" />
            </Array>
          </mxGeometry>
        </mxCell>
        <mxCell id="p38P3LaZY30MNL5SKZ96-17" style="edgeStyle=orthogonalEdgeStyle;rounded=0;orthogonalLoop=1;jettySize=auto;html=1;exitX=0.5;exitY=0;exitDx=0;exitDy=0;entryX=0.5;entryY=1;entryDx=0;entryDy=0;" parent="1" source="p38P3LaZY30MNL5SKZ96-11" target="p38P3LaZY30MNL5SKZ96-1" edge="1">
          <mxGeometry relative="1" as="geometry" />
        </mxCell>
        <mxCell id="p38P3LaZY30MNL5SKZ96-11" value="" style="shape=orEllipse;perimeter=ellipsePerimeter;whiteSpace=wrap;html=1;backgroundOutline=1;" parent="1" vertex="1">
          <mxGeometry x="285" y="616" width="20" height="20" as="geometry" />
        </mxCell>
        <mxCell id="p38P3LaZY30MNL5SKZ96-13" value="&lt;span style=&quot;caret-color: rgb(0, 0, 0); color: rgb(0, 0, 0); font-family: Helvetica; font-size: 12px; font-style: normal; font-variant-caps: normal; font-weight: 400; letter-spacing: normal; text-indent: 0px; text-transform: none; word-spacing: 0px; -webkit-text-stroke-width: 0px; background-color: rgb(251, 251, 251); text-decoration: none; float: none; display: inline !important;&quot;&gt;Feed forward&amp;nbsp;&lt;/span&gt;&lt;br style=&quot;border-color: var(--border-color); caret-color: rgb(0, 0, 0); color: rgb(0, 0, 0); font-family: Helvetica; font-size: 12px; font-style: normal; font-variant-caps: normal; font-weight: 400; letter-spacing: normal; text-indent: 0px; text-transform: none; word-spacing: 0px; -webkit-text-stroke-width: 0px; text-decoration: none;&quot;&gt;&lt;span style=&quot;caret-color: rgb(0, 0, 0); color: rgb(0, 0, 0); font-family: Helvetica; font-size: 12px; font-style: normal; font-variant-caps: normal; font-weight: 400; letter-spacing: normal; text-indent: 0px; text-transform: none; word-spacing: 0px; -webkit-text-stroke-width: 0px; background-color: rgb(251, 251, 251); text-decoration: none; float: none; display: inline !important;&quot;&gt;macaron&lt;/span&gt;" style="text;whiteSpace=wrap;html=1;rotation=0;align=right;" parent="1" vertex="1">
          <mxGeometry x="304" y="616" width="84" height="32" as="geometry" />
        </mxCell>
        <mxCell id="p38P3LaZY30MNL5SKZ96-24" value="" style="edgeStyle=orthogonalEdgeStyle;rounded=0;orthogonalLoop=1;jettySize=auto;html=1;" parent="1" source="p38P3LaZY30MNL5SKZ96-18" target="p38P3LaZY30MNL5SKZ96-2" edge="1">
          <mxGeometry relative="1" as="geometry" />
        </mxCell>
        <mxCell id="p38P3LaZY30MNL5SKZ96-18" value="" style="shape=orEllipse;perimeter=ellipsePerimeter;whiteSpace=wrap;html=1;backgroundOutline=1;" parent="1" vertex="1">
          <mxGeometry x="284" y="446" width="20" height="20" as="geometry" />
        </mxCell>
        <mxCell id="p38P3LaZY30MNL5SKZ96-30" value="" style="edgeStyle=orthogonalEdgeStyle;rounded=0;orthogonalLoop=1;jettySize=auto;html=1;" parent="1" source="p38P3LaZY30MNL5SKZ96-25" target="p38P3LaZY30MNL5SKZ96-4" edge="1">
          <mxGeometry relative="1" as="geometry" />
        </mxCell>
        <mxCell id="p38P3LaZY30MNL5SKZ96-25" value="" style="shape=orEllipse;perimeter=ellipsePerimeter;whiteSpace=wrap;html=1;backgroundOutline=1;direction=south;" parent="1" vertex="1">
          <mxGeometry x="284" y="266" width="20" height="20" as="geometry" />
        </mxCell>
        <mxCell id="p38P3LaZY30MNL5SKZ96-33" value="" style="edgeStyle=orthogonalEdgeStyle;rounded=0;orthogonalLoop=1;jettySize=auto;html=1;exitX=0.5;exitY=1;exitDx=0;exitDy=0;entryX=0.5;entryY=1;entryDx=0;entryDy=0;" parent="1" source="p38P3LaZY30MNL5SKZ96-4" target="p38P3LaZY30MNL5SKZ96-37" edge="1">
          <mxGeometry relative="1" as="geometry">
            <mxPoint x="294" y="234" as="sourcePoint" />
            <mxPoint x="324" y="26" as="targetPoint" />
            <Array as="points">
              <mxPoint x="294" y="254" />
              <mxPoint x="192" y="254" />
              <mxPoint x="192" y="96" />
            </Array>
          </mxGeometry>
        </mxCell>
        <mxCell id="p38P3LaZY30MNL5SKZ96-45" style="edgeStyle=orthogonalEdgeStyle;rounded=0;orthogonalLoop=1;jettySize=auto;html=1;exitX=0;exitY=0.5;exitDx=0;exitDy=0;" parent="1" source="p38P3LaZY30MNL5SKZ96-37" edge="1">
          <mxGeometry relative="1" as="geometry">
            <mxPoint x="294" y="24" as="targetPoint" />
          </mxGeometry>
        </mxCell>
        <mxCell id="p38P3LaZY30MNL5SKZ96-37" value="" style="shape=orEllipse;perimeter=ellipsePerimeter;whiteSpace=wrap;html=1;backgroundOutline=1;direction=south;" parent="1" vertex="1">
          <mxGeometry x="284" y="86" width="20" height="20" as="geometry" />
        </mxCell>
        <mxCell id="p38P3LaZY30MNL5SKZ96-42" value="&lt;div style=&quot;text-align: center;&quot;&gt;Attention&lt;/div&gt;" style="text;whiteSpace=wrap;html=1;rotation=0;" parent="1" vertex="1">
          <mxGeometry x="324" y="456" width="48" height="24" as="geometry" />
        </mxCell>
        <mxCell id="p38P3LaZY30MNL5SKZ96-43" value="&lt;div style=&quot;text-align: center;&quot;&gt;Convolution&lt;/div&gt;" style="text;whiteSpace=wrap;html=1;rotation=0;" parent="1" vertex="1">
          <mxGeometry x="317" y="276" width="79" height="24" as="geometry" />
        </mxCell>
        <mxCell id="p38P3LaZY30MNL5SKZ96-44" value="&lt;div style=&quot;text-align: center;&quot;&gt;Feedforward&lt;/div&gt;&lt;div style=&quot;text-align: center;&quot;&gt;&lt;br&gt;&lt;/div&gt;" style="text;whiteSpace=wrap;html=1;rotation=0;" parent="1" vertex="1">
          <mxGeometry x="305" y="106" width="79" height="26" as="geometry" />
        </mxCell>
        <mxCell id="roFnetaP3WFrplxWxHo_-1" value="&lt;font style=&quot;font-size: 12px;&quot; face=&quot;Helvetica&quot;&gt;Attention:&amp;nbsp;RelPositionMultiHeadedAttention &amp;nbsp;(wenet&lt;span style=&quot;text-align: start;&quot;&gt;.&lt;/span&gt;&lt;span style=&quot;text-align: start;&quot;&gt;transformer&lt;/span&gt;&lt;span style=&quot;text-align: start; caret-color: rgb(204, 204, 204);&quot;&gt;.&lt;/span&gt;&lt;span style=&quot;text-align: start;&quot;&gt;attention)&lt;/span&gt;&lt;/font&gt;" style="whiteSpace=wrap;html=1;fillColor=#dae8fc;strokeColor=#6c8ebf;" vertex="1" parent="1">
          <mxGeometry x="480" y="502" width="456" height="60" as="geometry" />
        </mxCell>
        <mxCell id="roFnetaP3WFrplxWxHo_-3" value="&lt;font style=&quot;font-size: 12px;&quot; face=&quot;Helvetica&quot;&gt;Convolution:&amp;nbsp;&lt;/font&gt;ConvolutionModule&lt;font face=&quot;Helvetica&quot;&gt;&amp;nbsp; (&lt;/font&gt;wenet/transformer/convolution.py&lt;font face=&quot;Helvetica&quot;&gt;&lt;span style=&quot;text-align: start;&quot;&gt;)&lt;/span&gt;&lt;/font&gt;" style="whiteSpace=wrap;html=1;fillColor=#ffe6cc;strokeColor=#d79b00;" vertex="1" parent="1">
          <mxGeometry x="480" y="324" width="456" height="60" as="geometry" />
        </mxCell>
      </root>
    </mxGraphModel>
  </diagram>
  <diagram id="2YoNpaYnJ2l0GxBZdS74" name="Page-2">
    <mxGraphModel dx="1026" dy="692" grid="1" gridSize="12" guides="1" tooltips="1" connect="1" arrows="1" fold="1" page="1" pageScale="1" pageWidth="850" pageHeight="1100" math="0" shadow="0">
      <root>
        <mxCell id="0" />
        <mxCell id="1" parent="0" />
        <mxCell id="LtDnbeSMoWLAc6Nxx_D--1" style="edgeStyle=orthogonalEdgeStyle;rounded=0;orthogonalLoop=1;jettySize=auto;html=1;entryX=0.5;entryY=1;entryDx=0;entryDy=0;" edge="1" parent="1" target="LtDnbeSMoWLAc6Nxx_D--5">
          <mxGeometry relative="1" as="geometry">
            <Array as="points">
              <mxPoint x="148" y="756" />
            </Array>
            <mxPoint x="148" y="689.4418604651162" as="sourcePoint" />
          </mxGeometry>
        </mxCell>
        <mxCell id="LtDnbeSMoWLAc6Nxx_D--2" value="" style="rounded=1;whiteSpace=wrap;html=1;" vertex="1" parent="1">
          <mxGeometry x="12" y="48" width="792" height="948" as="geometry" />
        </mxCell>
        <mxCell id="LtDnbeSMoWLAc6Nxx_D--3" style="edgeStyle=orthogonalEdgeStyle;rounded=0;orthogonalLoop=1;jettySize=auto;html=1;exitX=0.5;exitY=1;exitDx=0;exitDy=0;entryX=0;entryY=0.5;entryDx=0;entryDy=0;" edge="1" parent="1" source="LtDnbeSMoWLAc6Nxx_D--5" target="LtDnbeSMoWLAc6Nxx_D--19">
          <mxGeometry relative="1" as="geometry">
            <mxPoint x="130" y="528" as="targetPoint" />
            <Array as="points">
              <mxPoint x="148" y="672" />
              <mxPoint x="43" y="672" />
              <mxPoint x="43" y="526" />
            </Array>
          </mxGeometry>
        </mxCell>
        <mxCell id="LtDnbeSMoWLAc6Nxx_D--4" value="" style="edgeStyle=orthogonalEdgeStyle;rounded=0;orthogonalLoop=1;jettySize=auto;html=1;" edge="1" parent="1" source="LtDnbeSMoWLAc6Nxx_D--5" target="LtDnbeSMoWLAc6Nxx_D--19">
          <mxGeometry relative="1" as="geometry" />
        </mxCell>
        <mxCell id="LtDnbeSMoWLAc6Nxx_D--5" value="Dropout&lt;br&gt;Attention&lt;br&gt;Layer norm" style="rounded=1;whiteSpace=wrap;html=1;fillColor=#dae8fc;strokeColor=#6c8ebf;" vertex="1" parent="1">
          <mxGeometry x="63" y="552" width="170" height="100" as="geometry" />
        </mxCell>
        <mxCell id="LtDnbeSMoWLAc6Nxx_D--6" value="" style="edgeStyle=orthogonalEdgeStyle;rounded=0;orthogonalLoop=1;jettySize=auto;html=1;" edge="1" parent="1" source="LtDnbeSMoWLAc6Nxx_D--8" target="LtDnbeSMoWLAc6Nxx_D--21">
          <mxGeometry relative="1" as="geometry" />
        </mxCell>
        <mxCell id="LtDnbeSMoWLAc6Nxx_D--7" style="edgeStyle=orthogonalEdgeStyle;rounded=0;orthogonalLoop=1;jettySize=auto;html=1;exitX=0.5;exitY=1;exitDx=0;exitDy=0;entryX=0.5;entryY=1;entryDx=0;entryDy=0;" edge="1" parent="1" source="LtDnbeSMoWLAc6Nxx_D--8" target="LtDnbeSMoWLAc6Nxx_D--21">
          <mxGeometry relative="1" as="geometry">
            <Array as="points">
              <mxPoint x="376" y="422" />
              <mxPoint x="276" y="422" />
              <mxPoint x="276" y="274" />
            </Array>
          </mxGeometry>
        </mxCell>
        <mxCell id="LtDnbeSMoWLAc6Nxx_D--8" value="Dropout&lt;br style=&quot;border-color: var(--border-color);&quot;&gt;Convolution&lt;br style=&quot;border-color: var(--border-color);&quot;&gt;Layer norm" style="rounded=1;whiteSpace=wrap;html=1;fillColor=#ffe6cc;strokeColor=#d79b00;" vertex="1" parent="1">
          <mxGeometry x="291" y="302" width="170" height="100" as="geometry" />
        </mxCell>
        <mxCell id="LtDnbeSMoWLAc6Nxx_D--9" style="edgeStyle=orthogonalEdgeStyle;rounded=0;orthogonalLoop=1;jettySize=auto;html=1;exitX=0.5;exitY=0;exitDx=0;exitDy=0;entryX=0.5;entryY=1;entryDx=0;entryDy=0;" edge="1" parent="1" source="LtDnbeSMoWLAc6Nxx_D--10" target="LtDnbeSMoWLAc6Nxx_D--16">
          <mxGeometry relative="1" as="geometry" />
        </mxCell>
        <mxCell id="LtDnbeSMoWLAc6Nxx_D--10" value="&lt;br&gt;linear&lt;br&gt;dropout&lt;br&gt;act&lt;br&gt;linear&lt;br&gt;ffscale dropout&lt;br&gt;nn.LayerNorm&lt;br&gt;&lt;div&gt;&lt;br&gt;&lt;/div&gt;" style="rounded=1;whiteSpace=wrap;html=1;fillColor=#d5e8d4;strokeColor=#82b366;" vertex="1" parent="1">
          <mxGeometry x="291" y="803" width="170" height="100" as="geometry" />
        </mxCell>
        <mxCell id="LtDnbeSMoWLAc6Nxx_D--11" value="" style="edgeStyle=orthogonalEdgeStyle;rounded=0;orthogonalLoop=1;jettySize=auto;html=1;" edge="1" parent="1" source="LtDnbeSMoWLAc6Nxx_D--12" target="LtDnbeSMoWLAc6Nxx_D--24">
          <mxGeometry relative="1" as="geometry" />
        </mxCell>
        <mxCell id="LtDnbeSMoWLAc6Nxx_D--12" value="&lt;br style=&quot;border-color: var(--border-color);&quot;&gt;linear&lt;br style=&quot;border-color: var(--border-color);&quot;&gt;dropout&lt;br style=&quot;border-color: var(--border-color);&quot;&gt;act&lt;br style=&quot;border-color: var(--border-color);&quot;&gt;linear&lt;br style=&quot;border-color: var(--border-color);&quot;&gt;ffscale dropout&lt;br style=&quot;border-color: var(--border-color);&quot;&gt;nn.LayerNorm&lt;div&gt;&lt;br/&gt;&lt;/div&gt;" style="rounded=1;whiteSpace=wrap;html=1;fillColor=#d5e8d4;strokeColor=#82b366;" vertex="1" parent="1">
          <mxGeometry x="292" y="132" width="170" height="100" as="geometry" />
        </mxCell>
        <mxCell id="LtDnbeSMoWLAc6Nxx_D--13" value="" style="endArrow=classic;html=1;rounded=0;entryX=0.5;entryY=1;entryDx=0;entryDy=0;" edge="1" parent="1" target="LtDnbeSMoWLAc6Nxx_D--10">
          <mxGeometry width="50" height="50" relative="1" as="geometry">
            <mxPoint x="376" y="1063" as="sourcePoint" />
            <mxPoint x="527" y="679" as="targetPoint" />
            <Array as="points" />
          </mxGeometry>
        </mxCell>
        <mxCell id="LtDnbeSMoWLAc6Nxx_D--14" value="" style="endArrow=classic;html=1;rounded=0;exitX=0.5;exitY=1;exitDx=0;exitDy=0;entryX=0;entryY=0.5;entryDx=0;entryDy=0;" edge="1" parent="1" source="LtDnbeSMoWLAc6Nxx_D--10" target="LtDnbeSMoWLAc6Nxx_D--16">
          <mxGeometry width="50" height="50" relative="1" as="geometry">
            <mxPoint x="477" y="741" as="sourcePoint" />
            <mxPoint x="537" y="691" as="targetPoint" />
            <Array as="points">
              <mxPoint x="376" y="931" />
              <mxPoint x="273" y="931" />
              <mxPoint x="273" y="775" />
            </Array>
          </mxGeometry>
        </mxCell>
        <mxCell id="LtDnbeSMoWLAc6Nxx_D--15" style="edgeStyle=orthogonalEdgeStyle;rounded=0;orthogonalLoop=1;jettySize=auto;html=1;exitX=0.25;exitY=0;exitDx=0;exitDy=0;entryX=0.5;entryY=1;entryDx=0;entryDy=0;" edge="1" parent="1" source="LtDnbeSMoWLAc6Nxx_D--31" target="LtDnbeSMoWLAc6Nxx_D--5">
          <mxGeometry relative="1" as="geometry">
            <Array as="points">
              <mxPoint x="259" y="672" />
              <mxPoint x="148" y="672" />
            </Array>
          </mxGeometry>
        </mxCell>
        <mxCell id="LtDnbeSMoWLAc6Nxx_D--32" value="" style="edgeStyle=orthogonalEdgeStyle;rounded=0;orthogonalLoop=1;jettySize=auto;html=1;entryX=0.5;entryY=1;entryDx=0;entryDy=0;" edge="1" parent="1" source="LtDnbeSMoWLAc6Nxx_D--16" target="LtDnbeSMoWLAc6Nxx_D--31">
          <mxGeometry relative="1" as="geometry">
            <mxPoint x="376" y="744" as="targetPoint" />
          </mxGeometry>
        </mxCell>
        <mxCell id="LtDnbeSMoWLAc6Nxx_D--16" value="" style="shape=orEllipse;perimeter=ellipsePerimeter;whiteSpace=wrap;html=1;backgroundOutline=1;" vertex="1" parent="1">
          <mxGeometry x="366" y="765" width="20" height="20" as="geometry" />
        </mxCell>
        <mxCell id="LtDnbeSMoWLAc6Nxx_D--17" value="&lt;span style=&quot;caret-color: rgb(0, 0, 0); color: rgb(0, 0, 0); font-family: Helvetica; font-size: 12px; font-style: normal; font-variant-caps: normal; font-weight: 400; letter-spacing: normal; text-indent: 0px; text-transform: none; word-spacing: 0px; -webkit-text-stroke-width: 0px; background-color: rgb(251, 251, 251); text-decoration: none; float: none; display: inline !important;&quot;&gt;Feed forward&amp;nbsp;&lt;/span&gt;&lt;br style=&quot;border-color: var(--border-color); caret-color: rgb(0, 0, 0); color: rgb(0, 0, 0); font-family: Helvetica; font-size: 12px; font-style: normal; font-variant-caps: normal; font-weight: 400; letter-spacing: normal; text-indent: 0px; text-transform: none; word-spacing: 0px; -webkit-text-stroke-width: 0px; text-decoration: none;&quot;&gt;&lt;span style=&quot;caret-color: rgb(0, 0, 0); color: rgb(0, 0, 0); font-family: Helvetica; font-size: 12px; font-style: normal; font-variant-caps: normal; font-weight: 400; letter-spacing: normal; text-indent: 0px; text-transform: none; word-spacing: 0px; -webkit-text-stroke-width: 0px; background-color: rgb(251, 251, 251); text-decoration: none; float: none; display: inline !important;&quot;&gt;macaron&lt;/span&gt;" style="text;whiteSpace=wrap;html=1;rotation=0;align=right;" vertex="1" parent="1">
          <mxGeometry x="385" y="765" width="84" height="32" as="geometry" />
        </mxCell>
        <mxCell id="LtDnbeSMoWLAc6Nxx_D--43" value="" style="edgeStyle=orthogonalEdgeStyle;rounded=0;orthogonalLoop=1;jettySize=auto;html=1;entryX=0.25;entryY=1;entryDx=0;entryDy=0;" edge="1" parent="1" source="LtDnbeSMoWLAc6Nxx_D--19" target="LtDnbeSMoWLAc6Nxx_D--42">
          <mxGeometry relative="1" as="geometry">
            <Array as="points">
              <mxPoint x="150" y="488" />
              <mxPoint x="260" y="488" />
            </Array>
          </mxGeometry>
        </mxCell>
        <mxCell id="LtDnbeSMoWLAc6Nxx_D--19" value="" style="shape=orEllipse;perimeter=ellipsePerimeter;whiteSpace=wrap;html=1;backgroundOutline=1;" vertex="1" parent="1">
          <mxGeometry x="138" y="516" width="20" height="20" as="geometry" />
        </mxCell>
        <mxCell id="LtDnbeSMoWLAc6Nxx_D--20" value="" style="edgeStyle=orthogonalEdgeStyle;rounded=0;orthogonalLoop=1;jettySize=auto;html=1;" edge="1" parent="1" source="LtDnbeSMoWLAc6Nxx_D--21" target="LtDnbeSMoWLAc6Nxx_D--12">
          <mxGeometry relative="1" as="geometry" />
        </mxCell>
        <mxCell id="LtDnbeSMoWLAc6Nxx_D--21" value="" style="shape=orEllipse;perimeter=ellipsePerimeter;whiteSpace=wrap;html=1;backgroundOutline=1;direction=south;" vertex="1" parent="1">
          <mxGeometry x="367" y="264" width="20" height="20" as="geometry" />
        </mxCell>
        <mxCell id="LtDnbeSMoWLAc6Nxx_D--22" value="" style="edgeStyle=orthogonalEdgeStyle;rounded=0;orthogonalLoop=1;jettySize=auto;html=1;exitX=0.5;exitY=1;exitDx=0;exitDy=0;entryX=0.5;entryY=1;entryDx=0;entryDy=0;" edge="1" parent="1" source="LtDnbeSMoWLAc6Nxx_D--12" target="LtDnbeSMoWLAc6Nxx_D--24">
          <mxGeometry relative="1" as="geometry">
            <mxPoint x="377" y="232" as="sourcePoint" />
            <mxPoint x="407" y="24" as="targetPoint" />
            <Array as="points">
              <mxPoint x="377" y="252" />
              <mxPoint x="275" y="252" />
              <mxPoint x="275" y="94" />
            </Array>
          </mxGeometry>
        </mxCell>
        <mxCell id="LtDnbeSMoWLAc6Nxx_D--23" style="edgeStyle=orthogonalEdgeStyle;rounded=0;orthogonalLoop=1;jettySize=auto;html=1;exitX=0;exitY=0.5;exitDx=0;exitDy=0;" edge="1" parent="1" source="LtDnbeSMoWLAc6Nxx_D--24">
          <mxGeometry relative="1" as="geometry">
            <mxPoint x="377" y="12" as="targetPoint" />
          </mxGeometry>
        </mxCell>
        <mxCell id="LtDnbeSMoWLAc6Nxx_D--24" value="" style="shape=orEllipse;perimeter=ellipsePerimeter;whiteSpace=wrap;html=1;backgroundOutline=1;direction=south;" vertex="1" parent="1">
          <mxGeometry x="367" y="84" width="20" height="20" as="geometry" />
        </mxCell>
        <mxCell id="LtDnbeSMoWLAc6Nxx_D--25" value="&lt;div style=&quot;text-align: center;&quot;&gt;Attention&lt;/div&gt;" style="text;whiteSpace=wrap;html=1;rotation=0;" vertex="1" parent="1">
          <mxGeometry x="178" y="526" width="48" height="24" as="geometry" />
        </mxCell>
        <mxCell id="LtDnbeSMoWLAc6Nxx_D--26" value="&lt;div style=&quot;text-align: center;&quot;&gt;Convolution&lt;/div&gt;" style="text;whiteSpace=wrap;html=1;rotation=0;" vertex="1" parent="1">
          <mxGeometry x="401" y="274" width="79" height="24" as="geometry" />
        </mxCell>
        <mxCell id="LtDnbeSMoWLAc6Nxx_D--27" value="&lt;div style=&quot;text-align: center;&quot;&gt;Feedforward&lt;/div&gt;&lt;div style=&quot;text-align: center;&quot;&gt;&lt;br&gt;&lt;/div&gt;" style="text;whiteSpace=wrap;html=1;rotation=0;" vertex="1" parent="1">
          <mxGeometry x="388" y="104" width="79" height="26" as="geometry" />
        </mxCell>
        <mxCell id="LtDnbeSMoWLAc6Nxx_D--38" value="" style="edgeStyle=orthogonalEdgeStyle;rounded=0;orthogonalLoop=1;jettySize=auto;html=1;" edge="1" parent="1" source="LtDnbeSMoWLAc6Nxx_D--29" target="LtDnbeSMoWLAc6Nxx_D--36">
          <mxGeometry relative="1" as="geometry" />
        </mxCell>
        <mxCell id="LtDnbeSMoWLAc6Nxx_D--29" value="Dropout&lt;br&gt;Attention&lt;br&gt;Layer norm" style="rounded=1;whiteSpace=wrap;html=1;fillColor=#dae8fc;strokeColor=#6c8ebf;" vertex="1" parent="1">
          <mxGeometry x="291" y="552" width="170" height="100" as="geometry" />
        </mxCell>
        <mxCell id="LtDnbeSMoWLAc6Nxx_D--41" value="" style="edgeStyle=orthogonalEdgeStyle;rounded=0;orthogonalLoop=1;jettySize=auto;html=1;" edge="1" parent="1" source="LtDnbeSMoWLAc6Nxx_D--30" target="LtDnbeSMoWLAc6Nxx_D--40">
          <mxGeometry relative="1" as="geometry" />
        </mxCell>
        <mxCell id="LtDnbeSMoWLAc6Nxx_D--30" value="Dropout&lt;br&gt;Attention&lt;br&gt;Layer norm" style="rounded=1;whiteSpace=wrap;html=1;fillColor=#dae8fc;strokeColor=#6c8ebf;" vertex="1" parent="1">
          <mxGeometry x="514" y="552" width="170" height="100" as="geometry" />
        </mxCell>
        <mxCell id="LtDnbeSMoWLAc6Nxx_D--33" value="" style="edgeStyle=orthogonalEdgeStyle;rounded=0;orthogonalLoop=1;jettySize=auto;html=1;" edge="1" parent="1" source="LtDnbeSMoWLAc6Nxx_D--31" target="LtDnbeSMoWLAc6Nxx_D--29">
          <mxGeometry relative="1" as="geometry" />
        </mxCell>
        <mxCell id="LtDnbeSMoWLAc6Nxx_D--34" style="edgeStyle=orthogonalEdgeStyle;rounded=0;orthogonalLoop=1;jettySize=auto;html=1;exitX=0.75;exitY=0;exitDx=0;exitDy=0;entryX=0.5;entryY=1;entryDx=0;entryDy=0;" edge="1" parent="1" source="LtDnbeSMoWLAc6Nxx_D--31" target="LtDnbeSMoWLAc6Nxx_D--30">
          <mxGeometry relative="1" as="geometry">
            <Array as="points">
              <mxPoint x="493" y="672" />
              <mxPoint x="598" y="672" />
            </Array>
          </mxGeometry>
        </mxCell>
        <mxCell id="LtDnbeSMoWLAc6Nxx_D--31" value="Router" style="rounded=0;whiteSpace=wrap;html=1;" vertex="1" parent="1">
          <mxGeometry x="142" y="687" width="468" height="48" as="geometry" />
        </mxCell>
        <mxCell id="LtDnbeSMoWLAc6Nxx_D--35" style="edgeStyle=orthogonalEdgeStyle;rounded=0;orthogonalLoop=1;jettySize=auto;html=1;exitX=0.5;exitY=0;exitDx=0;exitDy=0;entryX=0;entryY=0.5;entryDx=0;entryDy=0;" edge="1" parent="1" target="LtDnbeSMoWLAc6Nxx_D--36" source="LtDnbeSMoWLAc6Nxx_D--31">
          <mxGeometry relative="1" as="geometry">
            <mxPoint x="361" y="528" as="targetPoint" />
            <Array as="points">
              <mxPoint x="376" y="672" />
              <mxPoint x="274" y="672" />
              <mxPoint x="274" y="526" />
            </Array>
            <mxPoint x="379" y="652" as="sourcePoint" />
          </mxGeometry>
        </mxCell>
        <mxCell id="LtDnbeSMoWLAc6Nxx_D--44" style="edgeStyle=orthogonalEdgeStyle;rounded=0;orthogonalLoop=1;jettySize=auto;html=1;exitX=0.5;exitY=0;exitDx=0;exitDy=0;entryX=0.5;entryY=1;entryDx=0;entryDy=0;" edge="1" parent="1" source="LtDnbeSMoWLAc6Nxx_D--36" target="LtDnbeSMoWLAc6Nxx_D--42">
          <mxGeometry relative="1" as="geometry" />
        </mxCell>
        <mxCell id="LtDnbeSMoWLAc6Nxx_D--36" value="" style="shape=orEllipse;perimeter=ellipsePerimeter;whiteSpace=wrap;html=1;backgroundOutline=1;" vertex="1" parent="1">
          <mxGeometry x="366" y="516" width="20" height="20" as="geometry" />
        </mxCell>
        <mxCell id="LtDnbeSMoWLAc6Nxx_D--39" style="edgeStyle=orthogonalEdgeStyle;rounded=0;orthogonalLoop=1;jettySize=auto;html=1;exitX=0.75;exitY=0;exitDx=0;exitDy=0;entryX=0;entryY=0.5;entryDx=0;entryDy=0;strokeWidth=1;startSize=6;" edge="1" parent="1" target="LtDnbeSMoWLAc6Nxx_D--40" source="LtDnbeSMoWLAc6Nxx_D--31">
          <mxGeometry relative="1" as="geometry">
            <mxPoint x="601" y="492" as="targetPoint" />
            <Array as="points">
              <mxPoint x="493" y="526" />
            </Array>
            <mxPoint x="616" y="648" as="sourcePoint" />
          </mxGeometry>
        </mxCell>
        <mxCell id="LtDnbeSMoWLAc6Nxx_D--45" style="edgeStyle=orthogonalEdgeStyle;rounded=0;orthogonalLoop=1;jettySize=auto;html=1;exitX=0.5;exitY=0;exitDx=0;exitDy=0;entryX=0.75;entryY=1;entryDx=0;entryDy=0;" edge="1" parent="1" source="LtDnbeSMoWLAc6Nxx_D--40" target="LtDnbeSMoWLAc6Nxx_D--42">
          <mxGeometry relative="1" as="geometry" />
        </mxCell>
        <mxCell id="LtDnbeSMoWLAc6Nxx_D--40" value="" style="shape=orEllipse;perimeter=ellipsePerimeter;whiteSpace=wrap;html=1;backgroundOutline=1;" vertex="1" parent="1">
          <mxGeometry x="589" y="516" width="20" height="20" as="geometry" />
        </mxCell>
        <mxCell id="LtDnbeSMoWLAc6Nxx_D--46" value="" style="edgeStyle=orthogonalEdgeStyle;rounded=0;orthogonalLoop=1;jettySize=auto;html=1;" edge="1" parent="1" source="LtDnbeSMoWLAc6Nxx_D--42" target="LtDnbeSMoWLAc6Nxx_D--8">
          <mxGeometry relative="1" as="geometry" />
        </mxCell>
        <mxCell id="LtDnbeSMoWLAc6Nxx_D--42" value="Aggregator" style="rounded=0;whiteSpace=wrap;html=1;" vertex="1" parent="1">
          <mxGeometry x="142" y="432" width="468" height="36" as="geometry" />
        </mxCell>
      </root>
    </mxGraphModel>
  </diagram>
  <diagram id="UiPgGNPJIf0sTKZj-vWq" name="Page-3">
    <mxGraphModel dx="1026" dy="692" grid="1" gridSize="12" guides="1" tooltips="1" connect="1" arrows="1" fold="1" page="1" pageScale="1" pageWidth="850" pageHeight="1100" math="0" shadow="0">
      <root>
        <mxCell id="0" />
        <mxCell id="1" parent="0" />
      </root>
    </mxGraphModel>
  </diagram>
</mxfile>
